<?xml version="1.0" encoding="utf-8"?>
<!-- Generator: Adobe Illustrator 16.0.0, SVG Export Plug-In . SVG Version: 6.00 Build 0)  -->
<!DOCTYPE svg PUBLIC "-//W3C//DTD SVG 1.1//EN" "http://www.w3.org/Graphics/SVG/1.1/DTD/svg11.dtd">
<svg version="1.1" id="Capa_1" xmlns="http://www.w3.org/2000/svg" xmlns:xlink="http://www.w3.org/1999/xlink" x="0px" y="0px"
	 width="359.748px" height="168.054px" viewBox="0 0 359.748 168.054" enable-background="new 0 0 359.748 168.054"
	 xml:space="preserve">
<g>
	<path fill="#154C99" d="M58.467,148.775h1.701v12.027l-8.96-13.705h-5.095v1.678h1.694v16.75h-1.694v1.673h5.469v-1.673h-1.793
		v-13.498l8.422,12.838c0.224,0.33,0.438,0.68,0.657,1.041c0.213,0.354,0.46,0.792,0.728,1.292h2.531v-18.423h1.692v-1.678h-5.353
		V148.775z"/>
	<polygon fill="#154C99" points="66.903,148.775 68.614,148.775 68.614,165.525 66.903,165.525 66.903,167.198 74.44,167.198 
		74.44,165.525 72.734,165.525 72.734,148.775 74.44,148.775 74.44,147.098 66.903,147.098 	"/>
	<path fill="#154C99" d="M90.959,164.099c-0.84,0.433-1.746,0.654-2.704,0.654c-1.998,0-3.695-0.88-5.101-2.622
		c-1.421-1.763-2.119-3.876-2.119-6.398c0-2.106,0.536-3.844,1.658-5.188c1.117-1.355,2.545-2.027,4.244-2.027
		c0.917,0,1.7,0.225,2.323,0.686c0.61,0.471,0.91,1.036,0.91,1.701c0,0.281-0.052,0.546-0.179,0.787
		c-0.124,0.256-0.311,0.473-0.556,0.688l1.095,1.162l4.758-4.24l-1.1-1.162l-0.878,0.717c-0.864-0.738-1.789-1.273-2.753-1.625
		c-0.965-0.342-2.071-0.524-3.305-0.524c-1.431,0-2.806,0.321-4.142,0.957c-1.326,0.626-2.483,1.513-3.456,2.667
		c-0.849,1.016-1.519,2.146-1.942,3.375c-0.435,1.245-0.672,2.553-0.672,3.955c0,2.857,0.883,5.232,2.604,7.115
		c1.75,1.892,3.894,2.849,6.485,2.849c1.723,0,3.263-0.364,4.638-1.081c1.347-0.738,2.589-1.854,3.742-3.395l-1.188-1.018
		C92.578,163.027,91.805,163.691,90.959,164.099z"/>
	<path fill="#154C99" d="M107.063,147.098h-3.875l-6.586,18.428h-1.363v1.673h5.185v-1.673h-1.747l1.421-3.963h7.846l1.362,3.963
		h-1.864v1.673h7.447v-1.673h-1.327L107.063,147.098z M100.777,159.611l3.347-9.204l3.122,9.204H100.777z"/>
	<path fill="#154C99" d="M141.003,147.098h-5.828v1.678h1.691v12.23c0,1.324-0.333,2.362-0.995,3.129
		c-0.669,0.73-1.576,1.123-2.742,1.123c-1.12,0-1.949-0.34-2.526-1.023c-0.551-0.686-0.826-1.699-0.826-3.047v-14.09h-5.841v1.678
		h1.711v12.57c0,2.053,0.495,3.613,1.472,4.676c0.993,1.06,2.451,1.601,4.345,1.601c1.033,0,2-0.214,2.903-0.622
		c0.915-0.406,1.742-1.021,2.524-1.842l0.129,2.04h5.681v-1.673h-1.699V147.098z"/>
	<path fill="#154C99" d="M158.15,148.775h1.687v12.027l-8.944-13.705h-5.115v1.678h1.709v16.75h-1.709v1.673h5.474v-1.673h-1.801
		v-13.498l8.441,12.838c0.21,0.33,0.427,0.68,0.626,1.041c0.226,0.354,0.473,0.792,0.763,1.292h2.513v-18.423h1.707v-1.678h-5.351
		V148.775z"/>
	<polygon fill="#154C99" points="166.577,148.775 168.26,148.775 168.26,165.525 166.577,165.525 166.577,167.198 174.111,167.198 
		174.111,165.525 172.411,165.525 172.411,148.775 174.111,148.775 174.111,147.098 166.577,147.098 	"/>
	<path fill="#154C99" d="M192.597,147.23c-0.253,0.064-0.55,0.1-0.839,0.1c-0.354,0-0.835-0.065-1.507-0.188
		c-0.676-0.125-1.176-0.184-1.541-0.184c-1.418,0-2.636,0.371-3.63,1.158c-1.041,0.776-2.004,2.07-2.939,3.881l-1.076-3.223h1.38
		v-1.678h-6.973v1.678h1.36l5.414,15.385c0.145,0.426,0.308,0.902,0.441,1.391c0.137,0.494,0.278,1.041,0.412,1.647h4.005
		c0.097-0.538,0.25-1.067,0.39-1.595c0.152-0.541,0.337-1.086,0.539-1.68l4.791-13.408l0.177-0.522
		c0.404-1.138,0.748-1.903,1.042-2.28l-0.759-0.754C193.092,147.072,192.868,147.176,192.597,147.23z M186.135,163.504
		l-3.579-10.174c0.619-1.105,1.248-1.896,1.913-2.426c0.655-0.522,1.37-0.775,2.155-0.775c0.34,0,0.824,0.074,1.41,0.219
		c0.601,0.166,1.041,0.236,1.349,0.236c0.224,0,0.445-0.031,0.68-0.105c0.232-0.061,0.504-0.166,0.795-0.318L186.135,163.504z"/>
	<path fill="#154C99" d="M207.574,164.402c-1.095,0.564-2.551,0.855-4.371,0.855h-1.395v-9.15h6.158v1.658h1.542v-5.16h-1.542v1.551
		h-6.158v-5.113h2.28c1.313,0,2.391,0.174,3.238,0.531c0.821,0.373,1.545,0.953,2.182,1.771l1.286-0.649l-1.476-3.599h-13.368v1.678
		h1.707v16.75h-1.707v1.673h10.783c0.465,0,0.917,0,1.339,0.019c0.457,0.02,0.898,0.043,1.332,0.064l2.043-5.15l-1.349-0.451
		C209.508,162.93,208.669,163.844,207.574,164.402z"/>
	<path fill="#154C99" d="M225.241,160.176c1.795-0.45,3.173-1.201,4.129-2.314c0.974-1.102,1.457-2.452,1.457-4.076
		c0-2.061-0.811-3.697-2.413-4.892c-1.593-1.19-3.806-1.796-6.617-1.796h-7.89v1.678h1.696v16.75h-1.696v1.673h7.434v-1.673h-1.66
		v-4.688h1.66l3.217,4.493c0.022,0.031,0.051,0.061,0.09,0.083c0.531,0.74,0.934,1.326,1.187,1.785h5.206v-1.673h-1.46
		L225.241,160.176z M221.39,159.061h-1.709v-10.124h1.602c1.729,0,3.063,0.455,4.015,1.318c0.965,0.862,1.455,2.062,1.455,3.589
		c0,1.629-0.478,2.906-1.409,3.834C224.369,158.59,223.063,159.061,221.39,159.061z"/>
	<path fill="#154C99" d="M246.679,156.636c-0.701-0.548-2.073-1.195-4.125-1.952c-0.671-0.236-1.159-0.424-1.528-0.563
		c-1.362-0.525-2.291-1.006-2.823-1.45c-0.496-0.438-0.746-0.934-0.746-1.501c0-0.691,0.269-1.279,0.764-1.704
		c0.542-0.438,1.24-0.667,2.079-0.667c0.727,0,1.583,0.221,2.538,0.635c0.956,0.428,2.006,1.06,3.203,1.912l2.347-3.207
		l-1.218-0.809l-0.733,0.857c-0.866-0.484-1.73-0.871-2.58-1.09c-0.856-0.259-1.692-0.392-2.53-0.392
		c-1.837,0-3.419,0.61-4.758,1.825c-1.337,1.209-1.995,2.633-1.995,4.287c0,1.27,0.405,2.319,1.245,3.12
		c0.858,0.812,2.793,1.739,5.779,2.804c1.653,0.615,2.748,1.138,3.293,1.66c0.531,0.49,0.821,1.127,0.821,1.928
		c0,0.818-0.329,1.494-0.948,2.043c-0.611,0.545-1.391,0.822-2.356,0.822c-1.103,0-2.246-0.33-3.406-1.01
		c-1.14-0.695-2.325-1.725-3.543-3.104l-2.61,3.321c1.125,1.034,2.338,1.825,3.679,2.382c1.334,0.563,2.703,0.84,4.067,0.84
		c2.177,0,4.021-0.704,5.597-2.116c1.551-1.411,2.339-3.066,2.339-4.979c0-0.83-0.144-1.555-0.467-2.201
		C247.771,157.678,247.296,157.119,246.679,156.636z"/>
	<polygon fill="#154C99" points="251.549,148.775 253.24,148.775 253.24,165.525 251.549,165.525 251.549,167.198 259.077,167.198 
		259.077,165.525 257.385,165.525 257.385,148.775 259.077,148.775 259.077,147.098 251.549,147.098 	"/>
	<path fill="#154C99" d="M276.193,146.389h-1.572v0.709h-10.896v-0.709h-1.566l-0.716,5.615h1.547
		c0.214-1.049,0.569-1.801,1.1-2.264c0.513-0.471,1.254-0.697,2.238-0.697h0.793v16.482h-1.848v1.673h7.805v-1.673h-1.858v-16.482
		h0.797c0.962,0,1.708,0.227,2.235,0.697c0.522,0.463,0.896,1.215,1.115,2.264h1.524L276.193,146.389z"/>
	<path fill="#154C99" d="M287.618,147.098h-3.861l-6.594,18.428H275.8v1.673h5.181v-1.673h-1.764l1.457-3.963h7.835l1.357,3.963
		h-1.846v1.673h7.423v-1.673h-1.321L287.618,147.098z M281.342,159.611l3.324-9.204l3.162,9.204H281.342z"/>
	<path fill="#154C99" d="M308.279,160.176c1.801-0.45,3.178-1.201,4.131-2.314c0.98-1.102,1.469-2.452,1.469-4.076
		c0-2.061-0.797-3.697-2.408-4.892c-1.603-1.19-3.814-1.796-6.612-1.796h-7.892v1.678h1.692v16.75h-1.692v1.673h7.417v-1.673h-1.627
		v-4.688h1.627l3.261,4.493c0.013,0.031,0.03,0.061,0.061,0.083c0.546,0.74,0.926,1.326,1.188,1.785h5.226v-1.673h-1.496
		L308.279,160.176z M304.44,159.061h-1.684v-10.124h1.58c1.723,0,3.064,0.455,4.021,1.318c0.962,0.862,1.454,2.062,1.454,3.589
		c0,1.629-0.478,2.906-1.43,3.834C307.43,158.59,306.121,159.061,304.44,159.061z"/>
	<polygon fill="#154C99" points="317.109,148.775 318.793,148.775 318.793,165.525 317.109,165.525 317.109,167.198 
		324.646,167.198 324.646,165.525 322.936,165.525 322.936,148.775 324.646,148.775 324.646,147.098 317.109,147.098 	"/>
	<path fill="#154C99" d="M337.732,147.098h-3.879l-6.572,18.428h-1.379v1.673h5.203v-1.673h-1.746l1.414-3.963h7.842l1.361,3.963
		h-1.863v1.673h7.461v-1.673h-1.344L337.732,147.098z M331.457,159.611l3.336-9.204l3.148,9.204H331.457z"/>
	<path fill="#154C99" d="M353.682,147.369c-0.127-0.104-0.303-0.229-0.506-0.331c0.596-0.079,1.059-0.269,1.355-0.575
		c0.297-0.314,0.441-0.709,0.441-1.15c0-0.342-0.1-0.666-0.264-0.955c-0.178-0.303-0.416-0.502-0.713-0.604
		c-0.303-0.116-0.727-0.19-1.313-0.19h-2.83v6.389h0.85v-2.833h0.998c0.195,0,0.354,0.014,0.455,0.021
		c0.139,0.035,0.266,0.107,0.383,0.176c0.135,0.09,0.262,0.229,0.432,0.418c0.184,0.221,0.375,0.503,0.629,0.896l0.834,1.321h1.068
		l-1.109-1.733C354.172,147.873,353.93,147.588,353.682,147.369z M352.521,146.382h-1.818v-2.104h2.031
		c0.475,0,0.811,0.1,1.029,0.295c0.232,0.203,0.318,0.451,0.318,0.751c0,0.197-0.035,0.392-0.152,0.548
		c-0.121,0.191-0.283,0.323-0.496,0.402C353.209,146.344,352.91,146.382,352.521,146.382z"/>
	<path fill="#154C99" d="M352.674,139.717c-3.92,0-7.082,3.161-7.1,7.053c0.018,3.868,3.18,7.035,7.1,7.035
		c3.896,0,7.074-3.167,7.074-7.035C359.748,142.878,356.57,139.717,352.674,139.717z M352.674,152.412
		c-3.154,0-5.672-2.537-5.691-5.643c0.02-3.123,2.537-5.647,5.691-5.656c3.139,0.009,5.67,2.533,5.67,5.656
		C358.344,149.875,355.813,152.412,352.674,152.412z"/>
	<path fill="#154C99" d="M125.758,50.875c0,3.118,0.741,5.488,2.246,7.101c1.5,1.621,3.703,2.415,6.607,2.415
		c1.575,0,3.073-0.303,4.431-0.932c1.377-0.611,2.673-1.551,3.855-2.802l0.176,3.106h8.627v-2.557h-2.588V29.195h-8.844v2.585h2.586
		V50.35c0,2.006-0.529,3.574-1.523,4.738c-1.031,1.143-2.425,1.711-4.211,1.711c-1.703,0-2.979-0.514-3.815-1.558
		c-0.854-1.021-1.297-2.58-1.297-4.647V29.195h-8.862v2.585h2.612V50.875z"/>
	<path fill="#154C99" d="M163.326,50.585h-2.064V36.907c0.821-0.764,1.725-1.368,2.708-1.804c0.941-0.447,1.859-0.658,2.705-0.658
		c1.059,0,1.846,0.302,2.421,0.871c0.555,0.563,0.821,1.39,0.821,2.484v12.784h-2.071v2.184h9.583v-2.184h-2.006V37.138
		c0-2.03-0.554-3.63-1.688-4.808c-1.133-1.178-2.636-1.76-4.551-1.76c-1.117,0-2.354,0.305-3.649,0.914
		c-1.325,0.631-2.735,1.566-4.272,2.834l0.04-3.634h-0.264l-7.288,2.151v2.107l1.995-0.541v16.183h-1.995v2.184h9.577V50.585z"/>
	<path fill="#154C99" d="M183.851,29.195c0.869,0,1.584-0.295,2.21-0.928c0.611-0.607,0.921-1.354,0.921-2.209
		c0-0.866-0.31-1.568-0.89-2.17c-0.628-0.605-1.363-0.902-2.242-0.902c-0.845,0-1.576,0.31-2.199,0.912
		c-0.625,0.615-0.929,1.338-0.929,2.16c0,0.832,0.304,1.566,0.94,2.192C182.296,28.885,183.027,29.195,183.851,29.195z"/>
	<path fill="#154C99" d="M188.869,50.585h-2.045V33.756c0-0.455,0-0.949,0.024-1.479c0.004-0.521,0.076-1.1,0.134-1.707h-0.249
		l-7.453,2.248v2.077l2.013-0.536v16.226h-2.013v2.184h9.588V50.585z"/>
	<path fill="#154C99" d="M190.63,35.004l6.482,14.65c0.03,0.066,0.074,0.186,0.136,0.318c0.511,1.152,0.855,2.09,1.036,2.796h4.43
		c0.125-0.593,0.266-1.188,0.447-1.734c0.181-0.562,0.396-1.146,0.618-1.743l5.939-14.031c0.063-0.14,0.138-0.35,0.229-0.629
		c0.582-1.33,1.056-2.293,1.417-2.895l-0.94-0.907c-0.455,0.263-0.838,0.448-1.18,0.55c-0.316,0.104-0.674,0.152-1.068,0.152
		c-0.525,0-1.447-0.137-2.687-0.42c-1.261-0.282-2.227-0.427-2.911-0.427c-1.026,0-1.996,0.304-2.877,0.925
		c-0.911,0.619-2.006,1.771-3.275,3.44c-0.343-0.806-0.643-1.565-0.893-2.313c-0.235-0.757-0.446-1.466-0.567-2.167l-6.888,3.481
		l0.753,1.7L190.63,35.004z M198.889,35.09c0.613-0.343,1.239-0.526,1.875-0.526c0.502,0,1.313,0.167,2.418,0.486
		c1.118,0.311,1.905,0.484,2.346,0.484c0.413,0,0.713-0.05,0.952-0.118c0.267-0.08,0.498-0.192,0.742-0.366l-5.382,12.78
		l-4.727-11.134C197.679,35.978,198.284,35.441,198.889,35.09z"/>
	<path fill="#154C99" d="M213.572,50.178c1.889,2.133,4.322,3.201,7.252,3.201c2.028,0,3.929-0.449,5.698-1.368
		c1.796-0.914,3.347-2.251,4.686-3.971l-1.338-1.396c-0.918,0.875-1.896,1.503-2.916,1.934c-1.029,0.426-2.077,0.632-3.234,0.632
		c-1.647,0-3.084-0.478-4.266-1.419c-1.161-0.928-2.043-2.297-2.621-4.107l11.292-3.655c0.456-0.124,0.988-0.264,1.647-0.427
		c0.896-0.229,1.352-0.463,1.352-0.671c0-0.349-0.24-1.054-0.732-2.095c-0.488-1.054-1.064-1.982-1.738-2.806
		c-0.968-1.132-2.059-1.997-3.265-2.585c-1.218-0.584-2.531-0.875-3.906-0.875c-2.989,0-5.52,1.104-7.602,3.326
		c-2.095,2.203-3.141,4.943-3.141,8.232C210.739,45.387,211.691,48.084,213.572,50.178z M217.108,34.785
		c0.82-1.102,1.842-1.639,3.089-1.639c1.144,0,2.167,0.45,3.109,1.343c0.919,0.911,1.639,2.196,2.197,3.866l-9.415,2.934
		c-0.088-0.391-0.125-0.791-0.173-1.194c-0.046-0.413-0.054-0.804-0.054-1.218C215.86,37.239,216.262,35.869,217.108,34.785z"/>
	<path fill="#154C99" d="M233.514,35.822c0.311,0.155,0.52,0.357,0.607,0.541c0.126,0.205,0.185,0.623,0.202,1.281v12.964h-2.01
		v2.165h10.094v-2.165h-2.584V39.39c0-1.153,0.276-2.053,0.783-2.693c0.52-0.651,1.2-0.978,2.057-0.978
		c0.535,0,1.042,0.104,1.573,0.287c0.514,0.178,1.165,0.541,1.956,1.048l2.646-5.837l-1.747-0.766l-0.725,1.17
		c-0.589-0.344-1.143-0.602-1.688-0.775c-0.524-0.174-1-0.258-1.407-0.258c-0.744,0-1.447,0.297-2.078,0.895
		c-0.658,0.605-1.369,1.646-2.155,3.11c-0.289-0.804-0.776-1.522-1.414-2.144c-0.642-0.626-1.564-1.252-2.734-1.861l-3.849,4.852
		l1.51,1.346L233.514,35.822z"/>
	<path fill="#154C99" d="M249.561,40.6c0.761,0.958,2.596,2.134,5.499,3.518c0.069,0.025,0.179,0.075,0.332,0.146
		c2.752,1.299,4.154,2.515,4.154,3.654c0,0.754-0.269,1.385-0.813,1.88c-0.509,0.481-1.192,0.733-1.999,0.733
		c-1.083,0-2.198-0.361-3.362-1.057c-1.154-0.722-2.458-1.846-3.897-3.4l-2.965,4.057c1.097,1.043,2.332,1.832,3.756,2.403
		c1.43,0.563,2.889,0.845,4.44,0.845c2.479,0,4.571-0.718,6.254-2.176c1.699-1.443,2.531-3.216,2.531-5.301
		c0-1.516-0.359-2.746-1.122-3.695c-0.741-0.934-2.234-1.901-4.497-2.902c-0.062-0.022-0.117-0.051-0.193-0.08
		c-3.582-1.562-5.378-2.928-5.378-4.082c0-0.559,0.221-1.041,0.647-1.421c0.442-0.382,0.968-0.575,1.63-0.575
		c0.867,0,1.777,0.24,2.694,0.75c0.931,0.506,1.98,1.327,3.183,2.436l2.417-3.595c-1.153-0.737-2.289-1.28-3.4-1.64
		c-1.141-0.35-2.287-0.527-3.497-0.527c-2.196,0-4.005,0.619-5.438,1.839c-1.41,1.224-2.146,2.755-2.146,4.614
		C248.391,38.45,248.781,39.635,249.561,40.6z"/>
	<path fill="#154C99" d="M268.986,29.195c0.85,0,1.554-0.295,2.187-0.928c0.6-0.607,0.921-1.354,0.921-2.209
		c0-0.866-0.302-1.568-0.892-2.17c-0.614-0.605-1.352-0.902-2.216-0.902c-0.885,0-1.616,0.31-2.252,0.912
		c-0.608,0.615-0.893,1.338-0.893,2.16c0,0.832,0.311,1.566,0.921,2.192C267.393,28.885,268.14,29.195,268.986,29.195z"/>
	<path fill="#154C99" d="M273.983,50.585h-2.062V33.756c0-0.455,0-0.949,0.034-1.479c0.027-0.521,0.063-1.1,0.138-1.707h-0.248
		l-7.449,2.248v2.077l2.007-0.536v16.226h-2.007v2.184h9.586V50.585z"/>
	<path fill="#154C99" d="M283.79,53.379c1.119,0,2.267-0.271,3.4-0.801c1.158-0.549,2.264-1.325,3.32-2.37l0.445,2.561h7.064v-2.184
		h-2.007V24.701l1.92-0.689v-2.22l-9.438,3.122v2.289l2.017-0.699v5.7c-0.81-0.538-1.65-0.955-2.491-1.239
		c-0.86-0.254-1.768-0.395-2.725-0.395c-2.802,0-5.21,1.166-7.181,3.509c-1.998,2.333-2.985,5.226-2.985,8.715
		c0,3.146,0.792,5.7,2.407,7.657C279.153,52.404,281.242,53.379,283.79,53.379z M282.155,35.224
		c1.009-1.468,2.275-2.198,3.796-2.198c1.427,0,2.542,0.431,3.355,1.295c0.791,0.867,1.204,2.074,1.204,3.607v9.736
		c-0.532,0.629-1.157,1.121-1.85,1.473c-0.731,0.369-1.447,0.545-2.159,0.545c-1.668,0-3.094-0.838-4.198-2.479
		c-1.127-1.658-1.666-3.758-1.666-6.332C280.637,38.559,281.129,36.684,282.155,35.224z"/>
	<path fill="#154C99" d="M306.218,53.408c1.212,0,2.383-0.246,3.475-0.784c1.103-0.516,2.122-1.284,3.086-2.319l0.518,2.473h7
		v-2.169h-2.002V38.047c0-2.49-0.639-4.357-1.863-5.584c-1.244-1.246-3.07-1.867-5.535-1.867c-0.929,0-1.868,0.131-2.795,0.402
		c-0.933,0.273-1.858,0.676-2.822,1.225l0.414-1.551l-1.959-0.55l-2.125,6.548l2.066,0.719c0.67-1.167,1.458-2.064,2.405-2.688
		c0.942-0.607,1.962-0.912,3.074-0.912c1.148,0,2.047,0.305,2.688,0.907c0.607,0.609,0.936,1.447,0.936,2.536v1.535
		c-0.455-0.049-0.895-0.071-1.351-0.105c-0.467-0.004-0.908-0.024-1.349-0.024c-3.529,0-6.235,0.661-8.091,1.968
		c-1.884,1.338-2.81,3.249-2.81,5.754c0,1.979,0.666,3.65,2.025,5.009C302.559,52.724,304.225,53.408,306.218,53.408z M306.2,42.07
		c1.139-0.914,2.629-1.383,4.458-1.383c0.423,0,0.78,0.022,1.149,0.033c0.309,0.021,0.645,0.053,0.973,0.127v4.263
		c0,1.539-0.357,2.724-1.072,3.562c-0.756,0.834-1.75,1.26-3.077,1.26c-1.2,0-2.206-0.387-2.973-1.184
		c-0.766-0.791-1.153-1.807-1.153-3.063C304.504,44.21,305.09,43.002,306.2,42.07z"/>
	<path fill="#154C99" d="M329.992,53.379c1.141,0,2.289-0.271,3.424-0.801c1.145-0.549,2.252-1.325,3.313-2.37l0.43,2.561h7.072
		v-2.184h-2.006V24.701l1.922-0.689v-2.22l-9.416,3.122v2.289l1.998-0.699v5.7c-0.818-0.538-1.646-0.955-2.488-1.239
		c-0.848-0.254-1.756-0.395-2.727-0.395c-2.793,0-5.201,1.166-7.178,3.509c-2.012,2.333-2.992,5.226-2.992,8.715
		c0,3.146,0.803,5.7,2.416,7.657C325.367,52.404,327.453,53.379,329.992,53.379z M328.367,35.224
		c1.018-1.468,2.275-2.198,3.801-2.198c1.428,0,2.529,0.431,3.328,1.295c0.822,0.867,1.232,2.074,1.232,3.607v9.736
		c-0.529,0.629-1.164,1.121-1.848,1.473c-0.725,0.369-1.436,0.545-2.16,0.545c-1.682,0-3.09-0.838-4.215-2.479
		c-1.096-1.658-1.645-3.758-1.645-6.332C326.861,38.559,327.357,36.684,328.367,35.224z"/>
	<path fill="#154C99" d="M165.641,85.164h-3.052v-6.49c0.694,0.266,1.402,0.48,2.183,0.592c0.778,0.133,1.645,0.208,2.521,0.208
		c3.314,0,6.045-1.056,8.253-3.165c2.183-2.117,3.294-4.785,3.294-8.011c0-3.487-1.204-6.22-3.598-8.179
		c-2.4-1.969-5.767-2.943-10.042-2.943h-11.45v2.561h2.587v25.428h-2.587v2.574h11.892V85.164z M162.589,59.967h1.402
		c2.571,0,4.617,0.8,6.037,2.372c1.439,1.567,2.144,3.769,2.144,6.604c0,2.455-0.52,4.416-1.629,5.853
		c-1.114,1.439-2.574,2.17-4.393,2.17c-1.291,0-2.181-0.33-2.722-1.016c-0.561-0.674-0.839-1.808-0.839-3.41V59.967z"/>
	<path fill="#154C99" d="M190.204,65.557c-3.38,0-6.229,1.071-8.489,3.23c-2.261,2.158-3.371,4.885-3.371,8.178
		c0,3.314,1.11,6.021,3.371,8.184c2.261,2.145,5.109,3.219,8.489,3.219c3.438,0,6.285-1.074,8.534-3.21
		c2.246-2.149,3.367-4.878,3.367-8.192c0-3.293-1.121-6.02-3.367-8.178C196.489,66.628,193.641,65.557,190.204,65.557z
		 M194.896,83.987c-0.926,1.271-2.205,1.923-3.828,1.923c-1.866,0-3.511-1.026-4.863-3.108c-1.374-2.067-2.068-4.583-2.068-7.514
		c0-2.232,0.474-4.005,1.399-5.317c0.922-1.307,2.183-1.955,3.742-1.955c1.909,0,3.575,1.026,4.953,3.098
		c1.388,2.066,2.083,4.587,2.083,7.561C196.313,80.932,195.847,82.693,194.896,83.987z"/>
	<path fill="#154C99" d="M203.37,85.571v2.167h9.597v-2.167h-2.09V71.896c0.866-0.773,1.756-1.373,2.715-1.799
		c0.952-0.451,1.853-0.666,2.724-0.666c1.062,0,1.851,0.275,2.421,0.859c0.563,0.576,0.821,1.404,0.821,2.512v12.769h-2.082v2.167
		h9.591v-2.167h-2.014V72.117c0-2.02-0.548-3.615-1.669-4.798c-1.143-1.173-2.648-1.763-4.573-1.763
		c-1.115,0-2.325,0.309-3.646,0.934c-1.306,0.605-2.724,1.536-4.287,2.797l0.047-3.621h-0.248l-7.307,2.152v2.125l2.003-0.553
		v16.181H203.37z"/>
	<path fill="#154C99" d="M234.746,61.222c-0.526,1.409-1.322,2.615-2.371,3.634c-1.056,1.049-2.381,1.876-3.96,2.531v1.77h2.294
		v13.8c0,1.911,0.352,3.28,1.095,4.133c0.734,0.838,1.905,1.278,3.532,1.278c1.096,0,2.155-0.237,3.178-0.686
		c1.052-0.464,2.021-1.133,2.985-2.031l-0.971-1.404c-0.476,0.312-0.863,0.521-1.205,0.638c-0.313,0.114-0.655,0.174-0.972,0.174
		c-0.713,0-1.257-0.256-1.569-0.743c-0.349-0.47-0.5-1.271-0.5-2.377V69.156h2.879c0.433,0,0.704-0.074,0.836-0.207
		c0.146-0.11,0.233-0.364,0.301-0.75l0.274-1.783h-4.291v-4.844L234.746,61.222z"/>
	<path fill="#154C99" d="M241.701,85.571v2.167h9.582v-2.167h-2.062V68.755c0-0.474,0-0.966,0.02-1.489
		c0.053-0.534,0.089-1.102,0.147-1.709h-0.239l-7.449,2.252v2.08l2.004-0.539v16.222H241.701z"/>
	<path fill="#154C99" d="M248.459,63.262c0.615-0.617,0.929-1.351,0.929-2.195c0-0.881-0.314-1.607-0.901-2.193
		c-0.592-0.602-1.337-0.914-2.205-0.914c-0.882,0-1.605,0.313-2.225,0.93c-0.617,0.615-0.924,1.323-0.924,2.178
		c0,0.811,0.316,1.546,0.946,2.178c0.625,0.617,1.356,0.941,2.203,0.941C247.114,64.186,247.847,63.861,248.459,63.262z"/>
	<path fill="#154C99" d="M252.253,69.607h2.917v15.964h-2v2.167h10.556v-2.167h-3.041V69.607h3.819l1.06-2.82h-2.075
		c-1.495,0-2.746-0.451-3.795-1.414c-1.015-0.946-1.524-2.107-1.524-3.462c0-0.78,0.212-1.409,0.65-1.894
		c0.412-0.504,0.973-0.742,1.648-0.742c0.471,0,0.912,0.168,1.377,0.488c0.416,0.324,0.989,0.927,1.644,1.792l3.454-2.866
		c-0.578-0.656-1.305-1.18-2.173-1.545c-0.838-0.362-1.776-0.532-2.743-0.532c-1.924,0-3.74,0.704-5.39,2.138
		c-1.657,1.416-2.496,2.975-2.496,4.64c0,0.583,0.105,1.144,0.337,1.717c0.228,0.54,0.554,1.123,1.001,1.681h-2.24L252.253,69.607z"
		/>
	<path fill="#154C99" d="M270.059,64.186c0.862,0,1.6-0.324,2.198-0.924c0.641-0.617,0.925-1.351,0.925-2.195
		c0-0.881-0.284-1.607-0.895-2.193c-0.598-0.602-1.327-0.914-2.228-0.914c-0.832,0-1.593,0.313-2.2,0.93
		c-0.619,0.615-0.917,1.323-0.917,2.178c0,0.811,0.297,1.546,0.931,2.178C268.503,63.861,269.228,64.186,270.059,64.186z"/>
	<path fill="#154C99" d="M273.024,68.755c0-0.474,0.01-0.966,0.021-1.489c0.033-0.534,0.082-1.102,0.136-1.709h-0.23l-7.462,2.252
		v2.08l2.012-0.539v16.222h-2.012v2.167h9.602v-2.167h-2.067V68.755z"/>
	<path fill="#154C99" d="M286.405,68.189c1.186,0,2.213,0.404,3.141,1.233c0.914,0.825,1.706,2.077,2.412,3.774l3.955-3.613
		c-1.146-1.349-2.409-2.359-3.807-3.032c-1.378-0.661-2.874-0.995-4.514-0.995c-3.1,0-5.779,1.198-8.039,3.613
		c-2.241,2.4-3.378,5.284-3.378,8.659c0,3.13,0.938,5.681,2.797,7.606c1.872,1.959,4.316,2.932,7.35,2.932
		c1.912,0,3.716-0.524,5.372-1.564c1.659-1.035,2.986-2.488,3.991-4.318l-1.266-1.076c-0.825,1.005-1.729,1.758-2.685,2.26
		c-0.958,0.51-1.992,0.763-3.05,0.763c-1.978,0-3.724-0.954-5.216-2.847c-1.495-1.899-2.24-4.139-2.24-6.689
		c0-1.969,0.481-3.578,1.458-4.84C283.676,68.801,284.909,68.189,286.405,68.189z"/>
	<path fill="#154C99" d="M296.837,85.571v2.167h9.587v-2.167h-2.064V68.755c0-0.474,0-0.966,0.021-1.489
		c0.052-0.534,0.059-1.102,0.146-1.709h-0.238l-7.452,2.252v2.08l2.022-0.539v16.222H296.837z"/>
	<path fill="#154C99" d="M301.414,64.186c0.847,0,1.575-0.324,2.202-0.924c0.597-0.617,0.911-1.351,0.911-2.195
		c0-0.881-0.296-1.607-0.9-2.193c-0.595-0.602-1.338-0.914-2.213-0.914c-0.86,0-1.593,0.313-2.2,0.93
		c-0.641,0.615-0.941,1.323-0.941,2.178c0,0.811,0.322,1.546,0.941,2.178C299.845,63.861,300.568,64.186,301.414,64.186z"/>
	<path fill="#154C99" d="M319.818,73.644c-0.467-0.022-0.9-0.032-1.371-0.032c-3.51,0-6.209,0.684-8.064,1.992
		c-1.896,1.332-2.821,3.23-2.821,5.738c0,1.992,0.677,3.648,2.022,5.012c1.343,1.352,3.017,2.037,5.023,2.037
		c1.209,0,2.377-0.261,3.477-0.793c1.084-0.509,2.102-1.277,3.098-2.295l0.48,2.472h7.021v-2.183h-2.004V73.026
		c0-2.479-0.625-4.349-1.867-5.589c-1.223-1.232-3.074-1.861-5.543-1.861c-0.926,0-1.852,0.143-2.773,0.396
		c-0.924,0.275-1.867,0.693-2.813,1.221l0.379-1.527l-1.947-0.566l-2.126,6.553l2.083,0.718c0.652-1.175,1.451-2.067,2.385-2.681
		c0.963-0.607,1.975-0.912,3.072-0.912c1.16,0,2.064,0.295,2.688,0.902c0.641,0.611,0.965,1.452,0.965,2.525v1.54
		C320.701,73.703,320.254,73.672,319.818,73.644z M321.182,80.085c0,1.557-0.383,2.742-1.129,3.575
		c-0.725,0.834-1.736,1.258-3.039,1.258c-1.207,0-2.205-0.398-2.957-1.182c-0.789-0.783-1.16-1.801-1.16-3.057
		c0-1.484,0.553-2.697,1.699-3.613c1.139-0.94,2.623-1.393,4.457-1.393c0.428,0,0.787,0,1.111,0.038
		c0.338,0.011,0.66,0.061,1.018,0.12V80.085z"/>
	<path fill="#154C99" d="M143.887,103.879c1.761-0.34,3.116-1.008,4.111-1.989c0.993-0.981,1.474-2.129,1.474-3.47
		c0-2.096-0.772-3.654-2.31-4.701c-1.519-1.064-3.849-1.584-6.941-1.584h-11.98v2.569h2.584v25.429h-2.584v2.571h13.615
		c3.26,0,5.907-0.914,7.921-2.737c2.017-1.811,3.042-4.203,3.042-7.156c0-2.509-0.794-4.555-2.378-6.127
		C148.89,105.101,146.696,104.175,143.887,103.879z M136.91,94.979h1.616c1.674,0,2.961,0.32,3.846,0.984
		c0.875,0.674,1.316,1.64,1.316,2.911c0,1.274-0.405,2.242-1.233,2.903c-0.821,0.681-2.028,1.031-3.567,1.031h-1.978V94.979z
		 M144.689,118.129c-1.25,1.188-3.111,1.781-5.584,1.781h-2.195v-14.251h2.537c2.289,0,4.028,0.61,5.252,1.846
		c1.244,1.254,1.849,3.019,1.849,5.306C146.548,115.17,145.931,116.945,144.689,118.129z"/>
	<path fill="#154C99" d="M164.958,123.326c3.434,0,6.271-1.07,8.534-3.222c2.238-2.145,3.37-4.857,3.37-8.16
		c0-3.306-1.132-6.032-3.37-8.194c-2.263-2.145-5.1-3.244-8.534-3.244c-3.389,0-6.241,1.1-8.481,3.244
		c-2.265,2.162-3.371,4.889-3.371,8.194c0,3.282,1.106,6.009,3.371,8.16C158.716,122.256,161.568,123.326,164.958,123.326z
		 M160.286,104.941c0.943-1.314,2.181-1.981,3.735-1.981c1.935,0,3.575,1.043,4.966,3.12c1.389,2.079,2.084,4.602,2.084,7.555
		c0,2.25-0.471,4.021-1.418,5.318c-0.929,1.283-2.209,1.923-3.825,1.923c-1.873,0-3.511-1.04-4.871-3.116
		c-1.377-2.066-2.068-4.576-2.068-7.504C158.889,108.014,159.367,106.238,160.286,104.941z"/>
	<polygon fill="#154C99" points="177.946,120.536 177.946,122.704 187.484,122.704 187.484,120.536 185.464,120.536 185.464,94.628 
		187.438,93.951 187.438,91.727 177.946,94.858 177.946,97.115 179.953,96.424 179.953,120.536 	"/>
	<path fill="#154C99" d="M196.135,98.227c0.629-0.631,0.93-1.371,0.93-2.215c0-0.863-0.301-1.586-0.89-2.178
		c-0.606-0.609-1.34-0.901-2.234-0.901c-0.868,0-1.597,0.306-2.223,0.907c-0.607,0.616-0.906,1.344-0.906,2.172
		c0,0.824,0.299,1.57,0.946,2.184c0.622,0.625,1.356,0.948,2.183,0.948C194.784,99.144,195.532,98.834,196.135,98.227z"/>
	<path fill="#154C99" d="M189.364,120.536v2.168h9.606v-2.168h-2.079v-16.845c0-0.448,0.021-0.926,0.031-1.455
		c0.036-0.527,0.071-1.113,0.143-1.73h-0.242l-7.459,2.26v2.09l2.028-0.545v16.226H189.364z"/>
	<path fill="#154C99" d="M198.916,105.704l1.793-0.763l6.49,14.67c0.031,0.052,0.061,0.166,0.128,0.308
		c0.515,1.161,0.848,2.069,1.054,2.785h4.407c0.13-0.587,0.279-1.151,0.462-1.724c0.188-0.557,0.388-1.145,0.622-1.744l5.931-14.043
		c0.051-0.125,0.133-0.338,0.23-0.623c0.578-1.32,1.039-2.285,1.417-2.877l-0.943-0.918c-0.441,0.257-0.849,0.47-1.149,0.554
		c-0.353,0.112-0.719,0.158-1.093,0.158c-0.542,0-1.451-0.158-2.704-0.433c-1.248-0.279-2.212-0.432-2.914-0.432
		c-1.027,0-1.967,0.323-2.867,0.932c-0.908,0.615-2.012,1.771-3.267,3.43c-0.345-0.787-0.659-1.561-0.892-2.298
		c-0.249-0.751-0.453-1.474-0.576-2.181l-6.886,3.488L198.916,105.704z M208.962,105.037c0.623-0.344,1.244-0.512,1.898-0.512
		c0.492,0,1.309,0.163,2.427,0.466c1.101,0.321,1.876,0.495,2.352,0.495c0.36,0,0.687-0.045,0.936-0.131
		c0.257-0.084,0.499-0.203,0.739-0.371l-5.388,12.775l-4.728-11.121C207.768,105.933,208.354,105.385,208.962,105.037z"/>
	<path fill="#154C99" d="M225.389,100.066l-2.117,6.541l2.071,0.723c0.653-1.178,1.449-2.059,2.379-2.671
		c0.955-0.614,1.973-0.916,3.085-0.916c1.155,0,2.039,0.284,2.677,0.903c0.625,0.605,0.955,1.444,0.955,2.52v1.549
		c-0.461-0.047-0.922-0.076-1.356-0.104c-0.464-0.016-0.918-0.025-1.362-0.025c-3.522,0-6.219,0.662-8.092,1.971
		c-1.86,1.336-2.806,3.238-2.806,5.74c0,1.99,0.68,3.653,2.021,5.022c1.357,1.347,3.011,2.032,5.021,2.032
		c1.231,0,2.382-0.246,3.478-0.766c1.073-0.526,2.116-1.303,3.095-2.344l0.499,2.488h7.017v-2.178h-2.025v-12.561
		c0-2.492-0.606-4.347-1.83-5.596c-1.224-1.227-3.082-1.859-5.562-1.859c-0.931,0-1.85,0.135-2.795,0.4
		c-0.914,0.275-1.852,0.679-2.796,1.227l0.386-1.541L225.389,100.066z M234.439,115.046c0,1.556-0.38,2.739-1.116,3.574
		c-0.704,0.83-1.729,1.254-3.023,1.254c-1.241,0-2.23-0.378-2.981-1.177c-0.769-0.778-1.148-1.816-1.148-3.065
		c0-1.484,0.557-2.7,1.696-3.597c1.131-0.938,2.624-1.403,4.447-1.403c0.408,0,0.783,0.013,1.11,0.05
		c0.341,0.002,0.668,0.043,1.016,0.107V115.046z"/>
	<path fill="#154C99" d="M249.055,102.387c-0.656-0.619-1.572-1.234-2.755-1.859l-3.832,4.857l1.506,1.36l0.966-0.995
		c0.304,0.183,0.496,0.371,0.623,0.561c0.106,0.191,0.153,0.61,0.168,1.28v12.962h-2.002v2.178h10.098v-2.178h-2.577V109.33
		c0-1.162,0.26-2.045,0.76-2.691c0.541-0.66,1.23-0.971,2.088-0.971c0.517,0,1.03,0.091,1.577,0.273
		c0.505,0.211,1.149,0.555,1.947,1.051l2.627-5.822l-1.73-0.78l-0.737,1.172c-0.574-0.321-1.146-0.577-1.69-0.78
		c-0.524-0.16-0.985-0.254-1.426-0.254c-0.738,0-1.406,0.304-2.068,0.914c-0.627,0.591-1.349,1.639-2.139,3.102
		C250.176,103.73,249.702,103,249.055,102.387z"/>
	<path fill="#154C99" d="M264.518,92.933c-0.854,0-1.593,0.306-2.224,0.907c-0.599,0.616-0.914,1.344-0.914,2.172
		c0,0.824,0.315,1.57,0.933,2.184c0.643,0.625,1.393,0.948,2.206,0.948c0.849,0,1.583-0.31,2.208-0.917
		c0.597-0.631,0.908-1.371,0.908-2.215c0-0.863-0.311-1.586-0.9-2.178C266.125,93.225,265.407,92.933,264.518,92.933z"/>
	<path fill="#154C99" d="M259.951,120.536v2.168h9.577v-2.168h-2.05v-16.845c0-0.448,0-0.926,0.024-1.455
		c0.009-0.527,0.07-1.113,0.132-1.73h-0.241l-7.442,2.26v2.09l1.993-0.545v16.226H259.951z"/>
	<path fill="#154C99" d="M282.916,108.611c-0.453-0.016-0.895-0.025-1.354-0.025c-3.528,0-6.228,0.662-8.078,1.971
		c-1.874,1.336-2.817,3.238-2.817,5.74c0,1.99,0.672,3.653,2.02,5.022c1.352,1.347,3.02,2.032,5.031,2.032
		c1.216,0,2.367-0.246,3.459-0.766c1.093-0.526,2.126-1.303,3.088-2.344l0.527,2.488h6.995v-2.178h-2.002v-12.561
		c0-2.492-0.62-4.347-1.855-5.596c-1.239-1.227-3.09-1.859-5.558-1.859c-0.931,0-1.86,0.135-2.778,0.4
		c-0.917,0.275-1.846,0.679-2.816,1.227l0.401-1.541l-1.955-0.557l-2.116,6.541l2.079,0.723c0.645-1.178,1.442-2.059,2.386-2.671
		c0.928-0.614,1.968-0.916,3.102-0.916c1.131,0,2.014,0.284,2.65,0.903c0.622,0.605,0.94,1.444,0.94,2.52v1.549
		C283.808,108.668,283.364,108.639,282.916,108.611z M284.264,115.046c0,1.556-0.351,2.739-1.081,3.574
		c-0.748,0.83-1.743,1.254-3.054,1.254c-1.223,0-2.217-0.378-2.965-1.177c-0.763-0.778-1.16-1.816-1.16-3.065
		c0-1.484,0.567-2.7,1.695-3.597c1.14-0.938,2.628-1.403,4.458-1.403c0.411,0,0.796,0.013,1.103,0.05
		c0.336,0.002,0.679,0.043,1.005,0.107V115.046z"/>
	<path fill="#154C99" d="M293.586,104.9l2.003-0.547v16.183h-2.003v2.168h9.584v-2.168h-2.071v-13.683
		c0.838-0.763,1.729-1.361,2.711-1.811c0.948-0.438,1.848-0.65,2.709-0.65c1.043,0,1.839,0.296,2.41,0.865
		c0.556,0.568,0.857,1.393,0.857,2.498v12.78h-2.082v2.168h9.565v-2.168h-1.996v-13.468c0-2.012-0.559-3.62-1.688-4.783
		c-1.131-1.185-2.638-1.779-4.548-1.779c-1.144,0-2.363,0.314-3.669,0.94c-1.298,0.627-2.728,1.56-4.27,2.813l0.043-3.636h-0.263
		l-7.293,2.163V104.9z"/>
	<path fill="#154C99" d="M335.639,102.396c-1.227-1.227-3.066-1.859-5.539-1.859c-0.936,0-1.865,0.135-2.783,0.4
		c-0.926,0.275-1.879,0.679-2.816,1.227l0.391-1.541l-1.955-0.557l-2.111,6.541l2.076,0.723c0.645-1.178,1.436-2.059,2.387-2.671
		c0.949-0.614,1.98-0.916,3.086-0.916c1.139,0,2.041,0.284,2.664,0.903c0.639,0.605,0.969,1.444,0.969,2.52v1.549
		c-0.463-0.047-0.914-0.076-1.363-0.104c-0.465-0.016-0.902-0.025-1.367-0.025c-3.518,0-6.223,0.662-8.094,1.971
		c-1.861,1.336-2.803,3.238-2.803,5.74c0,1.99,0.674,3.653,2.027,5.022c1.357,1.347,3.02,2.032,5.014,2.032
		c1.236,0,2.391-0.246,3.471-0.766c1.084-0.526,2.121-1.303,3.115-2.344l0.496,2.488h7.002v-2.178h-2.008v-12.561
		C337.496,105.5,336.873,103.646,335.639,102.396z M332.006,115.046c0,1.556-0.379,2.739-1.094,3.574
		c-0.76,0.83-1.752,1.254-3.064,1.254c-1.223,0-2.211-0.378-2.965-1.177c-0.775-0.778-1.152-1.816-1.152-3.065
		c0-1.484,0.564-2.7,1.686-3.597c1.137-0.938,2.633-1.403,4.453-1.403c0.414,0,0.793,0.013,1.111,0.05
		c0.346,0.002,0.656,0.043,1.025,0.107V115.046z"/>
	<path fill="#154C99" d="M12.616,152.379l1.079,1.162l4.757-4.24l-1.106-1.162l-0.876,0.717c-0.854-0.738-1.763-1.273-2.739-1.625
		c-0.976-0.342-2.061-0.524-3.286-0.524c-1.441,0-2.817,0.321-4.162,0.957c-1.33,0.626-2.478,1.513-3.459,2.667
		c-0.849,1.016-1.513,2.146-1.946,3.375c-0.444,1.245-0.663,2.553-0.663,3.955c0,2.857,0.882,5.232,2.608,7.115
		c1.741,1.892,3.907,2.849,6.469,2.849c1.741,0,3.275-0.364,4.64-1.081c1.346-0.738,2.6-1.854,3.759-3.395l-1.194-1.018
		c-0.739,0.896-1.536,1.561-2.379,1.968c-0.819,0.433-1.733,0.654-2.695,0.654c-2,0-3.69-0.88-5.104-2.622
		c-1.417-1.763-2.121-3.876-2.121-6.398c0-2.106,0.537-3.844,1.676-5.188c1.103-1.355,2.521-2.027,4.238-2.027
		c0.921,0,1.677,0.225,2.306,0.686c0.625,0.471,0.936,1.036,0.936,1.701c0,0.281-0.055,0.546-0.215,0.787
		C13.04,151.947,12.837,152.164,12.616,152.379z"/>
	<path fill="#154C99" d="M30.353,164.402c-0.86,0.557-2.013,0.855-3.444,0.855h-1.595v-16.482h2.261v-1.678h-8.092v1.678h1.707
		v16.75h-1.707v1.673h11.424l-0.056,0.855h1.513l1.377-6.136l-1.315-0.303C31.915,162.893,31.229,163.824,30.353,164.402z"/>
	<polygon fill="#154C99" points="35.53,148.775 37.24,148.775 37.24,165.525 35.53,165.525 35.53,167.198 43.081,167.198 
		43.081,165.525 41.371,165.525 41.371,148.775 43.081,148.775 43.081,147.098 35.53,147.098 	"/>
	<polygon fill="#154C99" points="37.144,145.095 38.885,145.095 43.168,139.918 40.041,139.918 	"/>
	<rect x="0.282" y="133.264" fill="#154C99" width="345.005" height="3.695"/>
	<path fill="#154C99" d="M21.613,70.924V87.27c0,5.135,8.479,12.644,14.018,12.644h11.413v10.044l-24.177,11.355h66.219
		l-24.168-11.355V99.913h11.475c5.715,0,14.012-7.509,14.012-12.644V70.924h10.12l11.431,21.435V29.136l-11.431,24.012h-10.12
		V21.471H64.917V11.362L89.086,0H22.867l24.177,11.362v10.108H21.613v31.677H11.445L0,29.136v63.223l11.445-21.435H21.613z
		 M90.405,58.824h10.12v6.236h-10.12V58.824z M59.195,109.957h-6.24V99.913h0.011c1.306,0,3.141,1.837,3.141,2.563
		c0-0.724,1.457-2.536,3.087-2.563V109.957z M52.955,11.362h6.24v10.108h-6.24V11.362z M23.452,23.637h65.113v62.271
		c0,4.869-7.851,11.977-13.269,11.977H59.062c-1.56,0-2.959,1.738-2.959,2.431c0-0.692-1.737-2.431-2.97-2.431H36.717
		c-5.24,0-13.265-7.107-13.265-11.977V23.637z M11.445,58.824h10.167v6.236H11.445V58.824z"/>
	<path fill="#154C99" d="M56.708,66.236c2.16,0,3.947-1.602,4.197-3.535c0.325-2.498-3.055-6.295-5.423-7.445
		c2.14,1.877,4.668,5.352,4.668,6.818c0,2.067-1.545,3.449-3.44,3.449c-1.898,0-5.226-1.72-2.289-6.021l-0.075-0.118
		C49.983,63.804,54.546,66.236,56.708,66.236z"/>
	<path fill="#154C99" d="M56.462,65.121c-0.991-0.646-1.717-1.816-1.717-3.145c0-0.945,0.365-2.104,0.931-3.082
		c-0.974,0.877-1.679,2.286-1.679,3.354C53.997,63.594,55.109,64.732,56.462,65.121z"/>
	<path fill="#154C99" d="M55.428,61.911c0,1.028,0.769,1.911,1.702,2.212c-0.062-0.049-0.125-0.104-0.185-0.162
		c0.835-0.512,1.396-1.613,1.197-2.757c-0.166-0.931-0.864-2.073-1.66-2.716c0.535,0.78,0.956,1.746,1.103,2.568
		c0.2,1.133-0.105,2.205-0.658,2.895c-0.578-0.52-0.98-1.334-0.98-2.258c0-0.722,0.249-1.617,0.64-2.368
		C55.917,60,55.428,61.086,55.428,61.911z"/>
	<path fill="#154C99" d="M57.041,64.7c-0.225-0.004-0.478-0.056-0.74-0.156c0.444,0.343,0.938,0.517,1.437,0.458
		c0.405-0.045,0.765-0.231,1.081-0.525c0.459-0.473,0.763-1.129,0.832-1.855c0.161-1.826-1.88-4.613-3.382-5.605
		c-0.012,0.01-0.023,0.018-0.037,0.025c1.352,1.465,2.909,4.018,2.932,5.098C59.188,63.701,58.236,64.728,57.041,64.7z"/>
	<path fill="#154C99" d="M57.484,74.953c-0.206,0-0.396,0.028-0.586,0.066v5.036c0.287,0.089,0.576,0.222,0.875,0.222
		c1.457,0,2.838-1.273,2.498-3.145C60.025,75.769,58.943,74.953,57.484,74.953z"/>
	<path fill="#154C99" d="M73.3,80.517c-0.034,0-0.065,0.005-0.095,0.005c-0.293-0.052-0.608-0.082-0.943-0.082
		c-0.447,0-0.874,0.05-1.242,0.143v4.695c0.311,0.038,0.632,0.057,0.973,0.057c0.325,0,0.64-0.017,0.938-0.055
		c0.121,0.016,0.247,0.045,0.369,0.023c2.159-0.424,2.475-1.073,2.475-2.395C75.775,81.911,74.842,80.517,73.3,80.517z"/>
	<path fill="#154C99" d="M72.813,79.439c0.112,0.02,0.226,0.045,0.345,0.025c1.792-0.332,2.315-1.004,2.315-2.244
		c0-1.237-1.041-2.239-2.315-2.239c-0.034,0-0.063,0-0.092,0.004c-0.279-0.05-0.568-0.075-0.88-0.075
		c-0.422,0-0.815,0.048-1.166,0.132v4.396c0.291,0.036,0.593,0.055,0.91,0.055C72.238,79.492,72.531,79.474,72.813,79.439z"/>
	<path fill="#154C99" d="M35.209,92.639h17.537c1.294,0,3.152,1.842,3.152,2.591c0-0.749,1.669-2.591,3.156-2.591H76.4
		c3.362,0,5.775-2.6,5.775-5.189V49.721h-0.136v-20.97H29.423v21.722v1.36v35.616C29.423,90.039,32.606,92.639,35.209,92.639z
		 M71.311,86.523h-4.163v-0.732h0.631c0.521,0,1.077-0.373,1.162-0.869v-3.181V78.4v-3.182c-0.085-0.496-0.641-0.871-1.162-0.871
		h-0.631v-0.727h6v0.01c0.043,0,0.086,0.011,0.127,0.011v0.032c2.652,0.038,4.583,1.584,4.583,3.273
		c0,1.672-0.556,2.561-1.575,3.018c1.164,0.543,1.942,1.514,1.942,2.617C78.226,84.293,78.149,87.059,71.311,86.523z M78.563,47.988
		h-5.544l0.069-1.837h3.637c0.567,0,1.024-0.466,1.024-1.038V44.93h0.814V47.988z M65.099,39.929
		c0.641-2.743,2.928-5.101,6.529-5.101c3.604,0,6.101,2.313,6.529,5.101c0.192,1.238-0.238,5.305-5.065,6.137l0.033-1.007
		c1.756-0.623,2.688-2.521,2.688-4.518c0-2.48-1.83-4.494-4.081-4.494c-2.258,0-4.084,2.014-4.084,4.494
		c0,1.877,0.877,3.586,2.416,4.334l0.213,1.256C66.36,45.576,64.563,42.258,65.099,39.929z M64.89,44.93h0.714v0.184
		c0,0.572,0.459,1.038,1.025,1.038h3.649l0.319,1.837H64.89V44.93z M58.581,81.228c-1.414-0.045-1.976-0.204-2.152-0.306v0.898
		c0,0.022,0.004,0.041,0.008,0.067h-0.008v2.917c0,0.584,0.474,1.054,1.052,1.054h0.871v0.729h-6.034v-0.729h0.634
		c0.521,0,1.083-0.382,1.165-0.882v-3.192v-3.36V75.23c-0.082-0.496-0.644-0.881-1.165-0.881h-0.634v-0.729h6.034v0.01
		c2.239,0.1,3.888,1.273,4.28,3.183C63.188,79.547,60.982,81.307,58.581,81.228z M54.633,54.205c-1.19-1.557,9.091,3.988,7.62,8.743
		c-0.745,2.425-2.366,4.659-5.284,4.659c-2.945,0-5.485-2.127-5.485-4.659C51.484,59.25,57.349,59.055,54.633,54.205z
		 M32.797,47.266c0.496-0.098,1.009-0.342,1.36-0.881l5.119-11.557h0.49l4.798,11.359c0.433,0.651,1.108,0.878,1.702,0.918v0.883
		h-5.371v-0.811h1.054c0.355,0,0.346-0.461,0.346-1.031l-0.568-1.498h-5.238l-0.814,1.498c0,0.57-0.026,1.031,0.545,1.031h0.829
		v0.811h-4.251V47.266z M32.387,73.621h5.876v0.711h-0.843c-0.563,0-1.025,0.457-1.025,1.024v6.247c0,0.028,0.01,0.056,0.015,0.081
		c-0.004,0.048-0.015,0.093-0.015,0.149c0,1.325,0.56,2.936,2.117,3.287c0.338,0.117,0.717,0.188,1.123,0.188
		c0.358,0,0.698-0.057,1.005-0.145c1.711-0.256,2.312-1.95,2.312-3.33c0-0.102-0.002-0.194-0.014-0.283
		c0.012-0.063,0.014-0.125,0.014-0.186v-6.009c0-0.567-0.455-1.024-1.024-1.024h-0.724v-0.711h5.014v0.711h-0.838
		c-0.564,0-1.024,0.457-1.024,1.024v5.95c0,0.022-0.005,0.043-0.006,0.057c0.006,0.018,0.006,0.038,0.006,0.061v0.18
		c0,0.028,0.004,0.056,0.009,0.081c-0.005,0.048-0.009,0.093-0.009,0.149c0,0.104,0.004,0.213,0.015,0.32
		c-0.11,1.976-1.083,3.849-3.583,4.213c-0.479,0.144-1.005,0.22-1.56,0.22c-0.627,0-1.214-0.1-1.737-0.276
		c-2.413-0.538-3.274-2.504-3.274-4.518c0-0.027-0.033-0.115-0.069-0.217v-6.385c-0.082-0.491-0.633-0.859-1.137-0.859h-0.622
		V73.621z"/>
	<path fill="#154C99" d="M39.597,39c0-0.043-0.006-0.088-0.013-0.127c-0.015,0.039-0.026,0.084-0.026,0.127l-2.299,4.229h3.934
		L39.597,39z"/>
</g>
</svg>
